<svg id="svg" version="1.1" xmlns="http://www.w3.org/2000/svg" xmlns:xlink="http://www.w3.org/1999/xlink" width="400" height="400" viewBox="0, 0, 400,400"><g id="svgg"><path id="path0" d="M181.488 17.431 C 178.236 17.726,174.636 18.160,173.488 18.394 C 172.340 18.629,168.880 19.264,165.800 19.807 C 162.720 20.349,159.840 20.966,159.400 21.179 C 158.960 21.391,156.620 22.024,154.200 22.585 C 151.780 23.146,149.440 23.786,149.000 24.006 C 148.560 24.226,146.760 24.844,145.000 25.378 C 140.952 26.607,134.663 28.872,134.400 29.195 C 134.290 29.330,133.300 29.768,132.200 30.167 C 128.486 31.515,117.600 36.755,117.600 37.194 C 117.600 37.320,116.686 37.779,115.568 38.212 C 114.451 38.645,113.236 39.270,112.868 39.600 C 112.501 39.930,111.390 40.611,110.400 41.113 C 109.410 41.615,108.150 42.357,107.600 42.761 C 107.050 43.165,105.070 44.449,103.200 45.614 C 101.330 46.778,99.656 47.972,99.480 48.266 C 99.304 48.560,98.944 48.804,98.680 48.808 C 98.268 48.815,95.756 50.622,92.000 53.615 C 82.484 61.196,69.478 73.805,63.600 81.148 C 63.050 81.835,62.200 82.893,61.712 83.498 C 58.830 87.072,56.400 90.399,56.400 90.771 C 56.400 91.007,56.235 91.200,56.034 91.200 C 55.833 91.200,55.120 92.055,54.448 93.100 C 53.777 94.145,52.367 96.289,51.314 97.865 C 50.261 99.441,49.042 101.331,48.604 102.065 C 45.906 106.590,45.088 108.031,44.102 110.000 C 43.496 111.210,42.885 112.290,42.744 112.400 C 42.603 112.510,41.463 114.760,40.211 117.400 C 38.959 120.040,37.409 123.302,36.767 124.649 C 36.125 125.996,35.600 127.223,35.600 127.375 C 35.600 127.527,35.173 128.585,34.652 129.726 C 34.130 130.867,33.370 132.880,32.962 134.200 C 32.555 135.520,32.104 136.690,31.960 136.800 C 31.816 136.910,31.193 138.800,30.576 141.000 C 29.959 143.200,29.342 145.090,29.204 145.200 C 29.066 145.310,28.549 147.110,28.055 149.200 C 27.561 151.290,26.920 153.630,26.631 154.400 C 26.342 155.170,25.710 158.140,25.225 161.000 C 24.741 163.860,24.179 166.560,23.978 167.000 C 21.056 173.380,21.066 223.491,23.990 232.557 C 24.211 233.240,24.914 236.410,25.553 239.600 C 26.975 246.701,28.804 254.130,29.196 254.400 C 29.356 254.510,29.991 256.400,30.608 258.600 C 31.225 260.800,31.836 262.690,31.966 262.800 C 32.097 262.910,32.552 264.080,32.978 265.400 C 33.404 266.720,34.168 268.733,34.676 269.874 C 35.184 271.015,35.600 272.040,35.600 272.151 C 35.600 272.613,42.402 286.936,42.747 287.200 C 42.891 287.310,43.442 288.345,43.973 289.500 C 44.503 290.655,45.064 291.600,45.220 291.600 C 45.376 291.600,45.735 292.185,46.019 292.900 C 46.302 293.615,47.048 294.980,47.676 295.933 C 48.304 296.886,49.177 298.371,49.617 299.233 C 50.056 300.095,50.593 300.800,50.808 300.800 C 51.024 300.800,51.200 300.985,51.200 301.211 C 51.200 301.569,54.831 307.107,55.979 308.498 C 56.206 308.774,57.384 310.350,58.596 312.000 C 59.808 313.650,61.163 315.450,61.608 316.000 C 63.561 318.412,65.089 320.238,66.268 321.569 C 67.764 323.258,81.739 337.328,83.432 338.850 C 86.190 341.328,89.110 343.706,93.200 346.801 C 94.630 347.883,96.340 349.185,97.000 349.694 C 97.660 350.203,98.695 350.871,99.300 351.177 C 99.905 351.484,100.400 351.872,100.400 352.038 C 100.400 352.205,101.345 352.900,102.500 353.584 C 103.655 354.267,105.770 355.568,107.200 356.475 C 112.235 359.669,115.805 361.617,123.200 365.206 C 125.950 366.541,128.541 367.824,128.959 368.057 C 129.376 368.289,130.906 368.927,132.359 369.474 C 133.811 370.021,135.180 370.609,135.400 370.781 C 135.620 370.953,137.060 371.487,138.600 371.968 C 140.140 372.450,141.743 373.032,142.162 373.263 C 142.580 373.495,144.470 374.121,146.362 374.656 C 148.253 375.191,150.160 375.802,150.600 376.013 C 151.618 376.501,159.731 378.400,160.797 378.400 C 161.239 378.400,161.600 378.559,161.600 378.754 C 161.600 378.949,164.255 379.499,167.500 379.978 C 170.745 380.457,174.030 381.021,174.800 381.232 C 181.984 383.200,222.081 383.201,225.919 381.234 C 226.293 381.042,229.300 380.493,232.600 380.015 C 235.900 379.536,238.660 378.977,238.733 378.772 C 238.807 378.567,239.257 378.400,239.733 378.399 C 240.824 378.399,248.725 376.524,249.800 376.011 C 250.240 375.801,252.147 375.191,254.038 374.656 C 255.930 374.121,257.820 373.495,258.238 373.263 C 258.657 373.032,260.260 372.446,261.800 371.960 C 263.340 371.474,264.960 370.860,265.400 370.595 C 265.840 370.330,267.370 369.694,268.800 369.182 C 270.230 368.670,271.490 368.136,271.600 367.995 C 271.710 367.854,272.866 367.303,274.169 366.770 C 275.471 366.236,277.811 365.124,279.369 364.297 C 280.926 363.471,283.190 362.320,284.400 361.741 C 285.610 361.161,286.870 360.463,287.200 360.188 C 287.530 359.914,288.734 359.206,289.875 358.616 C 291.016 358.025,292.163 357.285,292.424 356.971 C 292.685 356.657,293.052 356.400,293.240 356.400 C 294.025 356.400,306.602 347.617,310.600 344.276 C 311.260 343.725,312.520 342.685,313.400 341.967 C 319.445 337.032,336.504 319.635,337.913 316.970 C 338.195 316.437,338.582 316.000,338.773 316.000 C 338.965 316.000,339.496 315.415,339.954 314.700 C 340.765 313.437,342.634 310.914,343.806 309.505 C 344.124 309.123,344.864 308.043,345.450 307.105 C 346.037 306.167,346.760 305.256,347.058 305.080 C 347.356 304.904,347.600 304.566,347.600 304.328 C 347.600 304.090,348.214 303.041,348.965 301.995 C 349.716 300.950,350.641 299.489,351.021 298.748 C 351.401 298.006,351.843 297.310,352.004 297.200 C 352.165 297.090,352.806 296.010,353.428 294.800 C 354.050 293.590,354.682 292.510,354.832 292.400 C 355.221 292.114,360.529 281.820,361.638 279.200 C 362.150 277.990,362.801 276.762,363.085 276.471 C 363.368 276.181,363.600 275.685,363.600 275.369 C 363.600 275.054,364.061 273.852,364.625 272.698 C 365.189 271.544,366.106 269.250,366.665 267.600 C 367.223 265.950,367.821 264.420,367.995 264.200 C 368.168 263.980,368.820 262.000,369.444 259.800 C 370.067 257.600,370.705 255.707,370.861 255.593 C 371.018 255.479,371.534 253.769,372.007 251.793 C 372.481 249.817,373.032 247.840,373.231 247.400 C 373.688 246.392,374.588 242.304,375.212 238.400 C 375.476 236.750,375.836 235.220,376.012 235.000 C 376.429 234.479,377.948 222.571,378.271 217.285 C 378.410 215.023,378.676 213.077,378.862 212.962 C 379.319 212.679,379.296 187.372,378.837 186.495 C 378.638 186.113,378.280 183.162,378.041 179.937 C 377.561 173.447,376.557 165.836,376.018 164.600 C 375.827 164.160,375.274 161.550,374.790 158.800 C 374.307 156.050,373.678 153.260,373.393 152.600 C 373.108 151.940,372.565 150.050,372.188 148.400 C 371.810 146.750,371.264 144.860,370.974 144.200 C 370.685 143.540,369.966 141.380,369.377 139.400 C 368.789 137.420,368.172 135.620,368.007 135.400 C 367.842 135.180,367.302 133.740,366.808 132.200 C 366.313 130.660,365.687 129.040,365.416 128.600 C 365.145 128.160,364.522 126.722,364.032 125.405 C 363.541 124.088,363.013 122.918,362.857 122.805 C 362.701 122.692,362.045 121.340,361.400 119.800 C 360.754 118.260,359.275 115.250,358.113 113.112 C 356.951 110.973,356.000 109.072,356.000 108.887 C 356.000 108.702,355.685 108.202,355.300 107.775 C 354.915 107.349,354.183 106.145,353.672 105.101 C 353.162 104.057,352.511 102.968,352.224 102.681 C 351.938 102.395,351.383 101.540,350.990 100.781 C 350.257 99.363,348.099 96.019,347.001 94.600 C 346.414 93.841,344.399 90.979,342.917 88.800 C 342.543 88.250,341.640 87.080,340.912 86.200 C 340.183 85.320,339.229 84.150,338.792 83.600 C 333.241 76.616,323.608 66.438,317.574 61.183 C 316.196 59.982,314.873 58.819,314.634 58.597 C 313.278 57.337,308.639 53.710,304.400 50.596 C 302.750 49.384,301.206 48.236,300.969 48.045 C 300.731 47.853,299.741 47.198,298.769 46.589 C 297.796 45.979,296.910 45.372,296.800 45.240 C 296.690 45.108,296.195 44.775,295.700 44.500 C 293.465 43.259,292.992 42.957,292.245 42.300 C 291.807 41.915,291.294 41.600,291.105 41.600 C 290.916 41.600,289.781 40.973,288.583 40.206 C 287.384 39.439,285.734 38.533,284.916 38.191 C 284.098 37.849,283.332 37.429,283.214 37.258 C 283.096 37.086,281.020 36.005,278.600 34.854 C 276.180 33.703,273.547 32.418,272.750 31.997 C 271.952 31.577,270.152 30.839,268.750 30.357 C 267.347 29.876,266.110 29.355,266.000 29.200 C 265.890 29.045,264.540 28.508,263.000 28.006 C 261.460 27.504,260.020 26.953,259.800 26.782 C 259.580 26.611,257.690 25.983,255.600 25.387 C 253.510 24.791,251.620 24.171,251.400 24.008 C 251.180 23.846,248.930 23.223,246.400 22.624 C 243.870 22.025,241.440 21.368,241.000 21.164 C 240.560 20.960,237.680 20.350,234.600 19.808 C 231.520 19.267,228.134 18.642,227.075 18.419 C 219.712 16.872,193.819 16.310,181.488 17.431 M218.400 45.746 C 292.166 54.985,348.541 115.544,353.991 191.400 C 359.759 271.699,303.578 344.725,226.000 357.769 C 128.914 374.093,42.540 295.670,46.860 195.120 C 50.766 104.203,130.535 34.741,218.400 45.746 M194.905 123.887 C 195.514 123.979,196.414 123.977,196.905 123.882 C 197.397 123.787,196.900 123.711,195.800 123.714 C 194.700 123.717,194.297 123.795,194.905 123.887 M186.350 127.100 C 186.058 133.556,185.857 146.700,186.054 146.481 C 186.319 146.187,186.806 126.000,186.548 126.000 C 186.466 126.000,186.378 126.495,186.350 127.100 M194.100 127.896 C 195.365 127.975,197.435 127.975,198.700 127.896 C 199.965 127.816,198.930 127.751,196.400 127.751 C 193.870 127.751,192.835 127.816,194.100 127.896 M212.000 130.925 C 212.000 130.994,212.585 131.579,213.300 132.225 L 214.600 133.400 213.425 132.100 C 212.330 130.888,212.000 130.616,212.000 130.925 M243.818 159.218 C 244.908 160.437,245.881 161.376,245.981 161.303 C 246.080 161.231,245.189 160.233,243.999 159.086 L 241.836 157.000 243.818 159.218 M188.946 167.400 C 188.947 169.600,189.014 170.449,189.095 169.287 C 189.176 168.124,189.176 166.324,189.093 165.287 C 189.011 164.249,188.945 165.200,188.946 167.400 M188.554 178.400 C 188.554 181.150,188.618 182.275,188.696 180.900 C 188.774 179.525,188.774 177.275,188.696 175.900 C 188.618 174.525,188.554 175.650,188.554 178.400 M266.900 184.287 C 267.505 184.378,268.495 184.378,269.100 184.287 C 269.705 184.195,269.210 184.120,268.000 184.120 C 266.790 184.120,266.295 184.195,266.900 184.287 M273.728 186.400 C 273.728 187.830,273.801 188.415,273.889 187.700 C 273.978 186.985,273.978 185.815,273.889 185.100 C 273.801 184.385,273.728 184.970,273.728 186.400 M186.159 191.600 C 186.159 194.790,186.221 196.095,186.297 194.500 C 186.373 192.905,186.373 190.295,186.297 188.700 C 186.221 187.105,186.159 188.410,186.159 191.600 M269.734 196.000 C 269.734 197.650,269.805 198.325,269.891 197.500 C 269.978 196.675,269.978 195.325,269.891 194.500 C 269.805 193.675,269.734 194.350,269.734 196.000 M186.520 199.600 C 186.520 200.810,186.595 201.305,186.687 200.700 C 186.778 200.095,186.778 199.105,186.687 198.500 C 186.595 197.895,186.520 198.390,186.520 199.600 M134.657 211.907 C 134.553 212.076,135.172 212.148,136.034 212.065 C 136.895 211.983,137.600 211.845,137.600 211.758 C 137.600 211.460,134.847 211.600,134.657 211.907 M145.107 211.890 C 145.826 211.979,146.906 211.977,147.507 211.886 C 148.108 211.795,147.520 211.722,146.200 211.724 C 144.880 211.726,144.388 211.801,145.107 211.890 M160.900 211.876 C 161.285 211.976,161.915 211.976,162.300 211.876 C 162.685 211.775,162.370 211.693,161.600 211.693 C 160.830 211.693,160.515 211.775,160.900 211.876 M131.775 214.900 L 130.600 216.200 131.900 215.025 C 133.112 213.930,133.384 213.600,133.075 213.600 C 133.006 213.600,132.421 214.185,131.775 214.900 M148.100 214.676 C 148.485 214.776,149.115 214.776,149.500 214.676 C 149.885 214.575,149.570 214.493,148.800 214.493 C 148.030 214.493,147.715 214.575,148.100 214.676 M163.500 214.693 C 164.435 214.777,165.965 214.777,166.900 214.693 C 167.835 214.609,167.070 214.540,165.200 214.540 C 163.330 214.540,162.565 214.609,163.500 214.693 M173.891 214.689 C 174.601 214.777,175.861 214.779,176.691 214.692 C 177.521 214.605,176.940 214.533,175.400 214.531 C 173.860 214.529,173.181 214.600,173.891 214.689 M128.575 217.700 L 127.400 219.000 128.700 217.825 C 129.912 216.730,130.184 216.400,129.875 216.400 C 129.806 216.400,129.221 216.985,128.575 217.700 M258.601 217.899 C 256.842 217.975,255.275 218.164,255.119 218.319 C 254.964 218.473,256.313 218.542,258.118 218.471 C 259.923 218.400,261.571 218.175,261.780 217.971 C 261.989 217.767,262.079 217.636,261.980 217.680 C 261.881 217.725,260.361 217.823,258.601 217.899 M134.534 240.796 C 134.579 241.472,134.857 241.818,135.400 241.873 C 135.976 241.931,136.011 241.898,135.525 241.752 C 135.153 241.642,134.764 241.157,134.659 240.675 C 134.500 239.942,134.480 239.961,134.534 240.796 M142.700 246.693 C 143.635 246.777,145.165 246.777,146.100 246.693 C 147.035 246.609,146.270 246.540,144.400 246.540 C 142.530 246.540,141.765 246.609,142.700 246.693 M185.270 251.467 C 185.231 252.384,185.096 253.464,184.970 253.867 C 184.753 254.556,184.767 254.557,185.193 253.895 C 185.442 253.507,185.577 252.427,185.493 251.495 L 185.340 249.800 185.270 251.467 M158.501 252.200 C 158.505 253.080,158.587 253.393,158.683 252.895 C 158.779 252.398,158.775 251.678,158.675 251.295 C 158.575 250.913,158.496 251.320,158.501 252.200 M161.700 260.676 C 162.085 260.776,162.715 260.776,163.100 260.676 C 163.485 260.575,163.170 260.493,162.400 260.493 C 161.630 260.493,161.315 260.575,161.700 260.676 M167.905 260.683 C 168.402 260.779,169.122 260.775,169.505 260.675 C 169.887 260.575,169.480 260.496,168.600 260.501 C 167.720 260.505,167.407 260.587,167.905 260.683 M177.541 263.301 C 177.743 263.503,178.333 263.601,178.854 263.519 C 179.655 263.393,179.598 263.337,178.487 263.152 C 177.693 263.021,177.319 263.079,177.541 263.301 M165.105 263.483 C 165.602 263.579,166.322 263.575,166.705 263.475 C 167.087 263.375,166.680 263.296,165.800 263.301 C 164.920 263.305,164.607 263.387,165.105 263.483 M169.300 263.476 C 169.685 263.576,170.315 263.576,170.700 263.476 C 171.085 263.375,170.770 263.293,170.000 263.293 C 169.230 263.293,168.915 263.375,169.300 263.476 " stroke="none" fill="#059b53" fill-rule="evenodd"></path><path id="path1" d="M192.000 97.868 C 119.677 105.123,78.093 184.251,112.471 249.200 C 150.667 321.362,252.736 320.427,289.796 247.577 C 326.112 176.188,269.849 90.060,192.000 97.868 M197.408 123.579 C 204.115 124.012,204.384 124.134,210.842 129.643 C 222.392 139.495,228.419 144.655,230.800 146.731 C 235.227 150.590,246.000 160.880,246.000 161.250 C 246.000 162.327,244.435 161.243,233.043 152.283 C 231.307 150.917,229.587 149.620,229.220 149.400 C 228.456 148.941,223.388 145.007,218.643 141.191 C 216.860 139.756,214.230 137.695,212.800 136.612 C 211.370 135.529,209.120 133.726,207.800 132.605 C 202.765 128.328,202.504 128.225,196.362 128.066 L 190.924 127.926 190.665 131.263 C 190.522 133.098,190.404 137.154,190.402 140.276 C 190.401 143.626,190.236 146.054,190.000 146.200 C 189.762 146.347,189.600 148.917,189.600 152.562 C 189.600 159.879,188.508 189.213,188.161 191.200 C 188.027 191.970,187.941 194.101,187.970 195.936 C 188.032 199.886,187.699 202.000,187.015 202.000 C 186.412 202.000,186.006 197.471,186.002 190.724 C 186.001 188.040,185.830 185.942,185.600 185.800 C 185.091 185.485,185.049 147.121,185.557 146.580 C 185.753 146.371,186.000 141.790,186.105 136.400 C 186.380 122.268,185.880 122.835,197.408 123.579 M253.426 170.059 C 253.880 170.467,255.320 170.994,256.626 171.232 C 262.471 172.296,266.000 175.347,266.000 179.337 L 266.000 181.314 268.422 181.061 C 274.007 180.477,274.236 181.030,273.842 194.178 C 273.400 208.973,273.044 210.518,269.260 214.088 C 265.317 217.808,264.740 218.005,256.462 218.471 C 252.578 218.690,249.040 219.011,248.600 219.184 C 246.390 220.054,240.562 220.804,236.000 220.804 C 230.767 220.805,227.420 221.193,225.400 222.034 C 224.740 222.308,224.110 222.559,224.000 222.591 C 223.890 222.623,223.091 222.958,222.223 223.336 C 221.356 223.714,220.231 224.128,219.723 224.255 C 219.216 224.382,218.800 224.647,218.800 224.843 C 218.800 225.040,218.536 225.200,218.213 225.200 C 217.891 225.200,217.017 225.809,216.272 226.554 C 214.537 228.289,213.560 228.800,211.975 228.800 C 210.949 228.800,210.280 229.234,208.583 231.000 C 207.420 232.210,206.166 233.200,205.796 233.200 C 205.426 233.200,204.584 233.584,203.924 234.054 C 202.821 234.839,197.626 234.960,196.883 234.217 C 196.316 233.649,197.607 233.200,199.804 233.200 C 201.530 233.200,202.464 233.024,202.680 232.658 C 202.856 232.360,203.752 231.646,204.672 231.071 C 205.592 230.496,206.905 229.209,207.591 228.213 C 208.329 227.140,209.148 226.400,209.596 226.400 C 210.012 226.400,210.459 226.228,210.589 226.017 C 210.719 225.807,211.090 225.737,211.414 225.861 C 211.776 226.000,212.686 225.393,213.774 224.290 C 214.924 223.124,216.925 221.821,219.473 220.579 C 221.633 219.526,223.850 218.444,224.400 218.174 C 226.509 217.141,228.813 216.760,235.000 216.426 C 241.127 216.094,245.686 215.484,247.400 214.766 C 247.840 214.582,251.300 214.251,255.089 214.030 C 264.113 213.503,268.400 211.204,268.400 206.889 C 268.400 206.048,268.556 205.189,268.748 204.980 C 269.080 204.617,270.011 190.906,270.004 186.500 L 270.000 184.400 267.631 184.400 C 263.947 184.400,262.713 183.182,262.869 179.698 C 263.004 176.713,261.660 175.075,258.000 173.760 C 257.010 173.404,255.660 172.916,255.000 172.675 C 253.564 172.149,251.078 169.721,251.416 169.174 C 251.685 168.740,252.214 168.973,253.426 170.059 M250.246 192.365 C 256.009 194.982,256.584 203.283,251.248 206.818 C 247.179 209.513,240.456 207.350,239.362 202.993 C 239.063 201.799,239.470 201.810,225.800 202.599 C 220.520 202.903,213.860 203.237,211.000 203.341 C 208.140 203.444,204.064 203.658,201.942 203.816 C 198.304 204.087,198.058 204.056,197.643 203.281 C 197.023 202.122,197.466 201.293,198.872 200.984 L 200.078 200.719 199.982 198.060 C 199.851 194.447,199.864 194.400,200.992 194.400 C 202.045 194.400,202.285 194.911,202.492 197.600 C 202.697 200.253,204.174 199.509,204.321 196.680 C 204.507 193.096,206.800 193.023,206.800 196.600 C 206.800 198.320,207.579 199.507,208.382 199.011 C 208.612 198.869,208.800 197.795,208.800 196.625 C 208.800 192.080,210.953 192.765,211.392 197.450 L 211.676 200.479 213.138 200.266 C 213.942 200.150,217.660 199.939,221.400 199.799 C 225.140 199.658,230.522 199.421,233.361 199.272 L 238.522 199.000 239.062 197.436 C 240.308 193.830,243.250 191.618,246.800 191.618 C 247.790 191.618,249.341 191.954,250.246 192.365 M244.000 194.900 C 242.308 196.055,240.960 197.945,242.200 197.424 C 244.054 196.643,245.051 196.727,246.285 197.765 C 247.295 198.615,247.556 198.691,247.747 198.194 C 248.162 197.112,249.904 196.730,251.250 197.426 C 252.388 198.014,252.433 198.009,252.064 197.324 C 250.431 194.294,246.582 193.137,244.000 194.900 M243.200 198.115 C 241.242 199.101,242.013 202.400,244.200 202.400 C 246.172 202.400,247.060 199.860,245.600 198.400 C 244.665 197.465,244.525 197.448,243.200 198.115 M248.629 198.629 C 247.621 199.636,248.635 202.000,250.075 202.000 C 250.677 202.000,252.000 200.406,252.000 199.680 C 252.000 198.079,249.849 197.408,248.629 198.629 M246.579 202.278 C 245.725 203.347,244.092 203.654,242.660 203.014 C 242.000 202.719,241.975 202.771,242.428 203.495 C 244.245 206.406,249.409 206.276,251.553 203.266 L 252.369 202.120 250.391 202.310 C 248.817 202.462,248.363 202.368,248.164 201.850 C 247.831 200.983,247.554 201.057,246.579 202.278 M157.049 210.434 C 165.764 212.740,178.846 213.365,184.700 211.754 C 186.044 211.384,185.791 212.208,184.288 213.095 C 180.775 215.168,164.330 215.707,157.400 213.976 C 154.236 213.186,153.549 213.212,151.608 214.196 C 150.557 214.728,149.618 215.085,149.522 214.988 C 149.211 214.678,143.431 216.026,142.514 216.623 C 141.334 217.392,139.008 217.355,137.777 216.548 C 136.797 215.906,136.743 215.933,134.291 218.239 C 130.626 221.686,130.503 222.125,131.370 228.600 C 131.527 229.774,132.649 232.259,133.165 232.578 C 134.382 233.330,135.274 236.123,135.137 238.749 L 135.000 241.382 136.600 241.711 C 140.345 242.481,146.857 242.118,148.968 241.022 C 152.553 239.160,154.096 239.946,155.775 244.490 C 156.366 246.090,157.289 248.152,157.825 249.071 C 158.471 250.178,158.800 251.357,158.800 252.563 C 158.800 254.507,160.274 259.605,160.977 260.094 C 161.600 260.527,163.514 260.463,163.800 260.000 C 163.936 259.780,164.656 259.600,165.400 259.600 C 166.144 259.600,166.864 259.780,167.000 260.000 C 167.329 260.532,169.727 260.513,170.267 259.973 C 171.057 259.183,176.540 259.005,177.158 259.749 C 178.880 261.824,181.850 258.377,182.814 253.184 C 183.606 248.918,184.159 247.976,186.910 246.200 C 188.274 245.320,189.975 244.087,190.692 243.461 C 191.856 242.443,192.024 242.396,192.264 243.022 C 192.458 243.527,192.095 244.106,190.966 245.095 C 185.559 249.831,185.756 249.559,185.467 252.672 C 184.776 260.105,180.666 264.980,176.637 263.144 C 175.863 262.791,174.743 262.838,171.666 263.350 C 169.482 263.714,167.387 263.893,167.010 263.749 C 166.634 263.604,165.103 263.716,163.610 263.998 C 159.773 264.722,158.282 263.980,156.563 260.487 C 155.882 259.105,154.847 257.475,154.263 256.865 C 153.044 255.594,152.919 254.401,153.853 252.976 C 154.447 252.068,154.449 251.918,153.875 251.282 C 153.528 250.899,152.842 249.536,152.351 248.253 C 151.310 245.533,150.937 245.299,149.136 246.241 C 148.124 246.770,147.008 246.916,144.540 246.844 C 142.562 246.786,141.176 246.915,141.016 247.174 C 140.635 247.790,138.548 247.697,137.208 247.004 C 136.506 246.641,135.583 246.503,134.843 246.651 C 131.331 247.354,129.764 245.157,130.173 240.109 C 130.448 236.722,130.437 236.663,129.211 234.956 C 125.573 229.890,125.281 220.703,128.659 217.559 C 129.461 216.811,131.144 215.165,132.399 213.900 C 134.977 211.300,136.723 210.895,138.970 212.377 C 140.049 213.088,140.233 213.100,141.323 212.537 C 141.973 212.200,143.786 211.782,145.352 211.607 C 148.832 211.217,149.622 211.029,151.069 210.245 C 152.577 209.428,153.338 209.452,157.049 210.434 " stroke="none" fill="#fafafa" fill-rule="evenodd"></path><path id="path2" d="M181.100 58.282 C 181.595 58.378,182.405 58.378,182.900 58.282 C 183.395 58.187,182.990 58.109,182.000 58.109 C 181.010 58.109,180.605 58.187,181.100 58.282 M194.120 60.000 C 194.120 61.210,194.195 61.705,194.287 61.100 C 194.378 60.495,194.378 59.505,194.287 58.900 C 194.195 58.295,194.120 58.790,194.120 60.000 M198.900 58.276 C 199.285 58.376,199.915 58.376,200.300 58.276 C 200.685 58.175,200.370 58.093,199.600 58.093 C 198.830 58.093,198.515 58.175,198.900 58.276 M165.305 60.687 C 165.914 60.779,166.814 60.777,167.305 60.682 C 167.797 60.587,167.300 60.511,166.200 60.514 C 165.100 60.517,164.697 60.595,165.305 60.687 M164.749 65.500 C 164.271 66.110,164.278 66.140,164.802 65.733 C 165.132 65.476,166.032 65.189,166.802 65.097 L 168.200 64.928 166.749 64.864 C 165.785 64.821,165.114 65.035,164.749 65.500 M179.701 67.400 C 179.705 68.280,179.787 68.593,179.883 68.095 C 179.979 67.598,179.975 66.878,179.875 66.495 C 179.775 66.113,179.696 66.520,179.701 67.400 M184.909 71.600 C 184.909 72.590,184.987 72.995,185.082 72.500 C 185.178 72.005,185.178 71.195,185.082 70.700 C 184.987 70.205,184.909 70.610,184.909 71.600 M198.078 73.667 L 198.157 76.600 198.299 73.809 C 198.403 71.756,198.549 71.175,198.851 71.609 C 199.192 72.101,199.235 72.104,199.105 71.625 C 198.602 69.761,198.006 70.946,198.078 73.667 M193.731 74.200 C 193.733 75.740,193.805 76.321,193.892 75.491 C 193.979 74.661,193.977 73.401,193.889 72.691 C 193.800 71.981,193.729 72.660,193.731 74.200 M265.293 78.000 C 265.293 78.770,265.375 79.085,265.476 78.700 C 265.576 78.315,265.576 77.685,265.476 77.300 C 265.375 76.915,265.293 77.230,265.293 78.000 M181.900 80.682 C 182.395 80.778,183.205 80.778,183.700 80.682 C 184.195 80.587,183.790 80.509,182.800 80.509 C 181.810 80.509,181.405 80.587,181.900 80.682 M191.400 83.603 C 145.179 88.135,107.257 117.975,92.532 161.400 C 66.739 237.464,121.557 316.457,200.200 316.548 C 286.462 316.649,341.494 222.410,300.623 144.579 C 279.559 104.466,234.601 79.367,191.400 83.603 M146.800 84.925 C 146.800 84.994,147.385 85.579,148.100 86.225 L 149.400 87.400 148.225 86.100 C 147.130 84.888,146.800 84.616,146.800 84.925 M261.693 86.800 C 261.693 87.570,261.775 87.885,261.876 87.500 C 261.976 87.115,261.976 86.485,261.876 86.100 C 261.775 85.715,261.693 86.030,261.693 86.800 M207.800 97.600 C 269.407 103.193,311.469 160.022,299.135 221.000 C 285.206 289.860,209.346 324.492,150.000 289.083 C 146.619 287.066,145.807 286.520,141.600 283.433 C 86.490 243.004,86.546 157.992,141.709 116.938 C 157.390 105.268,172.790 99.662,195.200 97.465 C 198.274 97.164,203.627 97.221,207.800 97.600 M190.705 123.483 C 191.202 123.579,191.922 123.575,192.305 123.475 C 192.687 123.375,192.280 123.296,191.400 123.301 C 190.520 123.305,190.207 123.387,190.705 123.483 M190.520 130.000 C 190.520 131.210,190.595 131.705,190.687 131.100 C 190.778 130.495,190.778 129.505,190.687 128.900 C 190.595 128.295,190.520 128.790,190.520 130.000 M265.693 179.600 C 265.693 180.370,265.775 180.685,265.876 180.300 C 265.976 179.915,265.976 179.285,265.876 178.900 C 265.775 178.515,265.693 178.830,265.693 179.600 M188.128 188.000 C 188.128 189.430,188.201 190.015,188.289 189.300 C 188.378 188.585,188.378 187.415,188.289 186.700 C 188.201 185.985,188.128 186.570,188.128 188.000 M270.131 189.400 C 270.133 190.940,270.205 191.521,270.292 190.691 C 270.379 189.861,270.377 188.601,270.289 187.891 C 270.200 187.181,270.129 187.860,270.131 189.400 M273.742 192.200 C 273.741 194.180,273.808 195.040,273.892 194.112 C 273.976 193.184,273.977 191.564,273.895 190.512 C 273.812 189.460,273.743 190.220,273.742 192.200 M273.337 199.400 C 273.339 201.160,273.409 201.830,273.493 200.889 C 273.578 199.949,273.577 198.509,273.491 197.689 C 273.405 196.870,273.336 197.640,273.337 199.400 M230.900 199.894 C 231.945 199.976,233.655 199.976,234.700 199.894 C 235.745 199.812,234.890 199.744,232.800 199.744 C 230.710 199.744,229.855 199.812,230.900 199.894 M205.588 200.393 C 203.051 200.541,200.621 200.865,200.188 201.113 C 199.400 201.565,207.094 201.447,210.311 200.959 C 211.484 200.781,211.839 199.910,210.676 200.062 C 210.414 200.097,208.125 200.246,205.588 200.393 M214.000 200.381 C 213.424 200.531,214.425 200.672,216.361 200.715 C 218.210 200.755,219.650 200.726,219.561 200.650 C 219.207 200.343,214.936 200.137,214.000 200.381 M222.300 200.295 C 223.455 200.376,225.345 200.376,226.500 200.295 C 227.655 200.214,226.710 200.148,224.400 200.148 C 222.090 200.148,221.145 200.214,222.300 200.295 M268.575 214.500 L 267.400 215.800 268.700 214.625 C 269.415 213.979,270.000 213.394,270.000 213.325 C 270.000 213.016,269.670 213.288,268.575 214.500 M158.800 214.158 C 158.800 214.245,159.505 214.383,160.366 214.465 C 161.228 214.548,161.847 214.476,161.743 214.307 C 161.553 214.000,158.800 213.860,158.800 214.158 M254.512 214.295 C 255.564 214.377,257.184 214.376,258.112 214.292 C 259.040 214.208,258.180 214.141,256.200 214.142 C 254.220 214.143,253.460 214.212,254.512 214.295 M126.520 224.400 C 126.520 225.610,126.595 226.105,126.687 225.500 C 126.778 224.895,126.778 223.905,126.687 223.300 C 126.595 222.695,126.520 223.190,126.520 224.400 M198.300 233.489 C 199.015 233.578,200.185 233.578,200.900 233.489 C 201.615 233.401,201.030 233.328,199.600 233.328 C 198.170 233.328,197.585 233.401,198.300 233.489 M173.505 259.483 C 174.002 259.579,174.722 259.575,175.105 259.475 C 175.487 259.375,175.080 259.296,174.200 259.301 C 173.320 259.305,173.007 259.387,173.505 259.483 M212.600 324.672 C 213.040 324.793,213.549 325.097,213.730 325.346 C 213.949 325.646,214.006 325.596,213.899 325.200 C 213.810 324.870,213.301 324.567,212.769 324.526 C 212.005 324.468,211.969 324.499,212.600 324.672 M203.328 327.200 C 203.328 328.630,203.401 329.215,203.489 328.500 C 203.578 327.785,203.578 326.615,203.489 325.900 C 203.401 325.185,203.328 325.770,203.328 327.200 M225.905 329.483 C 226.402 329.579,227.122 329.575,227.505 329.475 C 227.887 329.375,227.480 329.296,226.600 329.301 C 225.720 329.305,225.407 329.387,225.905 329.483 M246.493 331.200 C 246.493 331.970,246.575 332.285,246.676 331.900 C 246.776 331.515,246.776 330.885,246.676 330.500 C 246.575 330.115,246.493 330.430,246.493 331.200 M217.320 336.400 C 217.320 337.610,217.395 338.105,217.487 337.500 C 217.578 336.895,217.578 335.905,217.487 335.300 C 217.395 334.695,217.320 335.190,217.320 336.400 M222.093 336.400 C 222.093 337.170,222.175 337.485,222.276 337.100 C 222.376 336.715,222.376 336.085,222.276 335.700 C 222.175 335.315,222.093 335.630,222.093 336.400 M211.340 344.800 C 211.340 346.670,211.409 347.435,211.493 346.500 C 211.577 345.565,211.577 344.035,211.493 343.100 C 211.409 342.165,211.340 342.930,211.340 344.800 M226.500 351.876 C 226.885 351.976,227.515 351.976,227.900 351.876 C 228.285 351.775,227.970 351.693,227.200 351.693 C 226.430 351.693,226.115 351.775,226.500 351.876 " stroke="none" fill="#dc3c3c" fill-rule="evenodd"></path><path id="path3" d="M187.600 45.226 C 79.177 53.912,13.613 175.386,63.798 274.600 C 121.426 388.526,281.826 387.823,337.794 273.400 C 391.669 163.253,307.648 35.608,187.600 45.226 M151.775 58.500 C 150.778 61.720,148.230 64.764,147.306 63.839 C 146.339 62.872,147.905 58.638,149.400 58.177 C 151.820 57.431,152.095 57.468,151.775 58.500 M184.513 58.548 C 191.041 61.330,191.655 77.612,185.332 80.254 C 179.756 82.584,175.195 77.040,175.202 67.942 C 175.208 60.379,179.247 56.305,184.513 58.548 M202.882 58.945 C 206.325 60.638,207.043 66.185,204.209 69.200 L 203.269 70.200 204.823 74.800 C 206.717 80.409,206.711 80.008,204.900 79.960 C 201.851 79.879,201.625 79.679,200.440 75.992 C 198.903 71.212,198.428 70.474,198.412 72.841 C 198.405 73.854,198.284 75.789,198.143 77.141 L 197.886 79.600 195.681 79.600 L 193.475 79.600 193.738 73.536 C 193.882 70.201,194.000 65.324,194.000 62.698 L 194.000 57.923 197.700 58.070 C 200.222 58.170,201.872 58.449,202.882 58.945 M224.600 60.812 C 229.618 61.789,231.205 63.386,231.193 67.447 C 231.181 71.854,228.758 74.398,224.573 74.399 L 222.547 74.400 221.823 78.245 L 221.098 82.090 219.056 81.819 C 216.436 81.471,216.553 81.747,217.304 77.695 C 220.843 58.589,220.537 59.871,221.498 60.145 C 221.884 60.255,223.280 60.555,224.600 60.812 M168.384 61.357 C 168.584 61.884,168.870 62.964,169.018 63.757 L 169.289 65.200 167.293 65.200 C 163.631 65.200,163.482 67.249,166.999 69.234 C 175.382 73.965,174.405 83.773,165.614 83.131 L 163.829 83.000 163.349 80.600 C 162.781 77.757,162.694 77.925,164.479 78.418 C 168.674 79.576,169.245 76.068,165.200 73.985 C 160.760 71.699,158.823 67.202,160.634 63.386 C 161.895 60.726,167.578 59.239,168.384 61.357 M198.667 62.667 C 197.865 63.468,198.403 67.200,199.320 67.200 C 200.591 67.200,201.200 66.471,201.200 64.949 C 201.200 63.158,199.608 61.725,198.667 62.667 M180.391 64.422 C 179.005 67.768,180.669 75.600,182.766 75.600 C 184.738 75.600,185.615 70.349,184.383 65.913 C 183.578 63.015,181.323 62.172,180.391 64.422 M155.145 65.560 C 155.944 67.950,155.788 68.275,153.587 68.803 C 152.024 69.178,151.617 69.433,151.768 69.943 C 151.875 70.304,152.085 71.115,152.235 71.744 C 152.481 72.771,152.634 72.863,153.754 72.650 C 156.565 72.116,156.514 72.096,157.076 74.000 C 157.661 75.980,157.533 76.800,156.639 76.800 C 154.666 76.800,154.057 77.488,154.496 79.218 C 154.947 80.996,155.324 81.081,158.659 80.164 C 159.571 79.914,161.222 83.892,160.413 84.392 C 159.650 84.863,152.369 86.902,152.167 86.701 C 151.764 86.297,145.867 66.400,146.086 66.181 C 146.458 65.809,154.242 63.721,154.445 63.938 C 154.580 64.082,154.895 64.812,155.145 65.560 M240.623 64.447 C 242.708 64.972,242.655 64.714,241.441 68.449 C 237.233 81.396,237.086 82.400,239.405 82.400 C 240.797 82.400,241.250 81.479,243.634 73.800 C 246.132 65.752,245.816 66.241,248.147 66.829 C 250.671 67.464,250.660 67.140,248.400 74.268 C 244.357 87.020,242.822 88.722,237.078 86.826 C 232.316 85.254,232.040 82.494,235.533 71.356 C 238.147 63.018,237.646 63.698,240.623 64.447 M224.269 65.500 C 223.394 66.976,223.576 70.000,224.540 70.000 C 225.691 70.000,226.800 68.691,226.800 67.334 C 226.800 66.144,224.763 64.668,224.269 65.500 M140.375 70.736 C 142.874 72.564,143.975 75.701,143.055 78.372 L 142.508 79.957 145.910 83.603 C 147.781 85.608,149.152 87.384,148.956 87.551 C 148.760 87.717,147.809 88.195,146.842 88.613 L 145.085 89.374 141.754 85.787 C 139.923 83.814,138.419 82.336,138.412 82.502 C 138.405 82.668,139.120 84.534,140.000 86.649 C 140.880 88.763,141.600 90.540,141.600 90.597 C 141.600 90.719,137.742 92.400,137.463 92.400 C 137.360 92.400,137.003 91.635,136.671 90.700 C 136.338 89.765,135.310 87.200,134.386 85.000 C 133.462 82.800,131.992 79.290,131.120 77.200 C 130.248 75.110,129.444 73.184,129.332 72.920 C 129.131 72.442,130.239 71.858,134.200 70.353 C 136.499 69.479,138.857 69.625,140.375 70.736 M261.248 72.226 C 266.618 74.942,266.798 81.934,261.543 83.686 C 261.109 83.830,261.102 84.066,261.505 84.951 C 263.103 88.458,259.978 92.800,255.854 92.800 C 254.341 92.800,248.548 90.682,247.675 89.809 C 247.606 89.739,248.350 87.908,249.331 85.741 C 250.311 83.573,251.789 80.270,252.615 78.400 C 253.442 76.530,254.626 73.882,255.247 72.516 L 256.377 70.031 257.888 70.661 C 258.720 71.008,260.232 71.712,261.248 72.226 M135.225 74.900 C 135.322 76.877,137.016 79.215,137.900 78.591 C 139.008 77.808,139.095 75.991,138.069 75.062 C 137.210 74.285,135.189 74.170,135.225 74.900 M126.162 76.571 C 127.473 78.808,127.462 78.994,125.990 79.604 C 124.471 80.234,124.373 79.939,128.839 88.206 C 130.824 91.880,132.392 94.924,132.324 94.971 C 131.312 95.664,129.040 96.800,128.665 96.800 C 128.396 96.800,126.490 93.636,124.429 89.769 C 120.423 82.254,120.829 82.672,118.327 83.466 C 117.410 83.756,115.368 79.890,116.113 79.274 C 116.923 78.605,124.166 74.824,124.662 74.811 C 124.916 74.805,125.591 75.597,126.162 76.571 M257.849 77.830 C 256.945 80.026,257.348 80.784,259.091 80.171 C 260.614 79.635,261.194 77.898,260.211 76.812 C 259.125 75.612,258.682 75.803,257.849 77.830 M274.041 78.539 C 275.699 79.685,275.784 79.272,272.786 84.600 C 271.423 87.020,269.689 90.115,268.930 91.477 L 267.552 93.954 268.750 94.574 C 270.603 95.532,270.493 96.557,268.174 99.922 C 268.095 100.037,261.604 96.538,261.263 96.196 C 261.175 96.108,261.693 94.993,262.413 93.718 C 263.910 91.069,264.263 90.442,268.109 83.600 C 271.993 76.690,271.712 76.930,274.041 78.539 M215.800 84.400 C 306.589 97.547,346.210 209.344,284.602 278.540 C 223.757 346.880,113.042 318.880,89.793 229.273 C 69.140 149.669,135.965 72.838,215.800 84.400 M254.469 85.433 C 253.372 87.690,253.381 87.858,254.608 88.166 C 257.469 88.884,258.632 85.408,256.002 84.001 C 255.467 83.715,255.168 83.994,254.469 85.433 M284.809 85.053 C 286.914 86.447,287.188 85.757,280.583 95.707 C 274.912 104.249,274.744 104.455,273.883 103.896 C 273.397 103.580,272.595 103.071,272.100 102.765 C 270.871 102.004,270.773 102.246,274.733 96.302 C 276.676 93.386,279.298 89.425,280.558 87.500 C 281.819 85.575,282.933 84.000,283.034 84.000 C 283.135 84.000,283.933 84.474,284.809 85.053 M296.130 92.773 C 296.669 92.978,297.760 93.716,298.553 94.412 L 299.994 95.678 298.706 97.472 C 297.021 99.818,296.988 99.830,295.561 98.629 C 292.260 95.851,286.400 99.997,286.400 105.110 C 286.400 106.646,286.748 107.191,288.695 108.704 L 289.590 109.400 287.895 111.310 L 286.200 113.220 284.946 112.444 C 275.905 106.847,286.079 88.952,296.130 92.773 M198.500 97.496 C 199.765 97.575,201.835 97.575,203.100 97.496 C 204.365 97.416,203.330 97.351,200.800 97.351 C 198.270 97.351,197.235 97.416,198.500 97.496 M130.591 126.500 L 127.400 129.800 130.700 126.609 C 133.765 123.646,134.182 123.200,133.891 123.200 C 133.830 123.200,132.345 124.685,130.591 126.500 M198.305 123.883 C 198.802 123.979,199.522 123.975,199.905 123.875 C 200.287 123.775,199.880 123.696,199.000 123.701 C 198.120 123.705,197.807 123.787,198.305 123.883 M190.164 139.400 C 190.163 143.140,190.223 144.724,190.297 142.920 C 190.371 141.115,190.372 138.055,190.298 136.120 C 190.225 134.184,190.164 135.660,190.164 139.400 M209.200 133.725 C 209.200 133.824,209.861 134.409,210.668 135.025 C 211.476 135.641,212.011 135.941,211.856 135.691 C 211.540 135.179,209.200 133.447,209.200 133.725 M185.385 166.200 C 185.385 176.980,185.437 181.333,185.500 175.872 C 185.563 170.412,185.563 161.592,185.500 156.272 C 185.437 150.953,185.385 155.420,185.385 166.200 M262.920 180.400 C 262.920 181.610,262.995 182.105,263.087 181.500 C 263.178 180.895,263.178 179.905,263.087 179.300 C 262.995 178.695,262.920 179.190,262.920 180.400 M270.093 185.600 C 270.093 186.370,270.175 186.685,270.276 186.300 C 270.376 185.915,270.376 185.285,270.276 184.900 C 270.175 184.515,270.093 184.830,270.093 185.600 M243.354 192.365 C 241.357 193.272,239.845 195.167,238.823 198.045 C 238.403 199.230,238.045 199.975,238.029 199.700 C 238.008 199.329,236.940 199.219,233.900 199.275 L 229.800 199.349 233.000 199.620 C 235.242 199.810,234.224 199.865,229.600 199.804 C 225.366 199.748,224.004 199.813,225.800 199.986 L 228.600 200.256 225.000 200.306 C 223.020 200.334,219.960 200.205,218.200 200.019 C 216.199 199.807,214.775 199.826,214.400 200.070 C 213.874 200.412,213.876 200.437,214.418 200.274 C 214.757 200.172,216.107 200.231,217.418 200.405 C 219.433 200.674,219.190 200.704,215.839 200.603 C 213.660 200.538,211.410 200.631,210.839 200.810 C 209.428 201.251,199.246 201.638,200.000 201.222 C 200.908 200.720,203.378 200.429,207.731 200.312 L 211.662 200.206 211.392 197.403 C 210.949 192.783,208.800 192.139,208.800 196.625 C 208.800 197.795,208.612 198.869,208.382 199.011 C 207.579 199.507,206.800 198.320,206.800 196.600 C 206.800 193.023,204.507 193.096,204.321 196.680 C 204.174 199.509,202.697 200.253,202.492 197.600 C 202.285 194.911,202.045 194.400,200.992 194.400 C 199.864 194.400,199.851 194.447,199.982 198.060 L 200.078 200.719 198.872 200.984 C 197.466 201.293,197.023 202.122,197.643 203.281 C 198.058 204.056,198.304 204.087,201.942 203.816 C 204.064 203.658,208.140 203.444,211.000 203.341 C 213.860 203.237,220.520 202.903,225.800 202.599 C 239.470 201.810,239.063 201.799,239.362 202.993 C 240.456 207.350,247.179 209.513,251.248 206.818 C 258.005 202.342,254.867 191.618,246.800 191.618 C 245.810 191.618,244.259 191.954,243.354 192.365 M187.740 197.200 C 187.740 199.070,187.809 199.835,187.893 198.900 C 187.977 197.965,187.977 196.435,187.893 195.500 C 187.809 194.565,187.740 195.330,187.740 197.200 M248.926 194.450 C 250.072 195.040,251.574 196.416,252.064 197.324 C 252.433 198.009,252.388 198.014,251.250 197.426 C 249.904 196.730,248.162 197.112,247.747 198.194 C 247.556 198.691,247.295 198.615,246.285 197.765 C 245.051 196.727,244.054 196.643,242.200 197.424 C 241.435 197.746,241.428 197.718,242.041 196.780 C 243.574 194.436,246.788 193.349,248.926 194.450 M100.142 200.200 C 100.141 202.180,100.208 203.040,100.292 202.112 C 100.376 201.184,100.377 199.564,100.295 198.512 C 100.212 197.460,100.143 198.220,100.142 200.200 M245.600 198.400 C 247.060 199.860,246.172 202.400,244.200 202.400 C 242.013 202.400,241.242 199.101,243.200 198.115 C 244.525 197.448,244.665 197.465,245.600 198.400 M251.520 198.480 C 252.448 199.408,251.384 202.000,250.075 202.000 C 249.520 202.000,248.000 200.398,248.000 199.813 C 248.000 198.358,250.465 197.425,251.520 198.480 M248.164 201.850 C 248.363 202.368,248.817 202.462,250.391 202.310 L 252.369 202.120 251.553 203.266 C 249.409 206.276,244.245 206.406,242.428 203.495 C 241.975 202.771,242.000 202.719,242.660 203.014 C 244.092 203.654,245.725 203.347,246.579 202.278 C 247.554 201.057,247.831 200.983,248.164 201.850 M272.893 206.000 C 272.893 206.770,272.975 207.085,273.076 206.700 C 273.176 206.315,273.176 205.685,273.076 205.300 C 272.975 204.915,272.893 205.230,272.893 206.000 M268.400 206.626 C 268.400 207.411,268.210 208.446,267.978 208.926 C 267.570 209.770,267.577 209.774,268.178 209.024 C 268.740 208.322,269.084 205.200,268.600 205.200 C 268.490 205.200,268.400 205.842,268.400 206.626 M169.300 212.676 C 169.685 212.776,170.315 212.776,170.700 212.676 C 171.085 212.575,170.770 212.493,170.000 212.493 C 169.230 212.493,168.915 212.575,169.300 212.676 M180.100 212.676 C 180.485 212.776,181.115 212.776,181.500 212.676 C 181.885 212.575,181.570 212.493,180.800 212.493 C 180.030 212.493,179.715 212.575,180.100 212.676 M156.400 213.755 C 156.400 213.840,156.930 213.987,157.579 214.082 C 158.227 214.177,158.667 214.108,158.555 213.928 C 158.357 213.607,156.400 213.450,156.400 213.755 M250.200 214.298 C 248.880 214.378,247.673 214.569,247.518 214.722 C 247.364 214.875,248.354 214.940,249.718 214.866 C 251.083 214.793,252.371 214.568,252.580 214.366 C 252.789 214.165,252.879 214.034,252.780 214.076 C 252.681 214.117,251.520 214.217,250.200 214.298 M169.091 215.089 C 169.801 215.177,171.061 215.179,171.891 215.092 C 172.721 215.005,172.140 214.933,170.600 214.931 C 169.060 214.929,168.381 215.000,169.091 215.089 M138.262 216.900 C 138.364 217.065,139.236 217.200,140.200 217.200 C 141.164 217.200,142.036 217.065,142.138 216.900 C 142.240 216.735,141.368 216.600,140.200 216.600 C 139.032 216.600,138.160 216.735,138.262 216.900 M232.700 216.695 C 233.855 216.776,235.745 216.776,236.900 216.695 C 238.055 216.614,237.110 216.548,234.800 216.548 C 232.490 216.548,231.545 216.614,232.700 216.695 M247.400 219.200 L 246.200 219.505 247.276 219.553 C 247.868 219.579,248.464 219.420,248.600 219.200 C 248.736 218.980,248.792 218.821,248.724 218.847 C 248.656 218.873,248.060 219.032,247.400 219.200 M126.650 220.850 C 126.317 222.517,126.640 222.840,127.000 221.200 C 127.152 220.509,127.193 219.859,127.091 219.758 C 126.989 219.656,126.791 220.147,126.650 220.850 M233.500 220.697 C 235.095 220.773,237.705 220.773,239.300 220.697 C 240.895 220.621,239.590 220.559,236.400 220.559 C 233.210 220.559,231.905 220.621,233.500 220.697 M199.700 234.676 C 200.085 234.776,200.715 234.776,201.100 234.676 C 201.485 234.575,201.170 234.493,200.400 234.493 C 199.630 234.493,199.315 234.575,199.700 234.676 M134.924 237.800 C 134.926 239.120,135.001 239.612,135.090 238.893 C 135.179 238.174,135.177 237.094,135.086 236.493 C 134.995 235.892,134.922 236.480,134.924 237.800 M130.493 238.000 C 130.493 238.770,130.575 239.085,130.676 238.700 C 130.776 238.315,130.776 237.685,130.676 237.300 C 130.575 236.915,130.493 237.230,130.493 238.000 M142.900 242.276 C 143.285 242.376,143.915 242.376,144.300 242.276 C 144.685 242.175,144.370 242.093,143.600 242.093 C 142.830 242.093,142.515 242.175,142.900 242.276 M190.494 243.612 C 189.775 244.265,189.337 244.800,189.519 244.800 C 189.701 244.800,190.368 244.260,191.000 243.600 C 192.470 242.065,192.186 242.072,190.494 243.612 M139.400 247.200 L 137.800 247.486 139.276 247.543 C 140.088 247.574,140.864 247.420,141.000 247.200 C 141.136 246.980,141.192 246.826,141.124 246.857 C 141.056 246.888,140.280 247.042,139.400 247.200 M183.293 251.200 C 183.293 251.970,183.375 252.285,183.476 251.900 C 183.576 251.515,183.576 250.885,183.476 250.500 C 183.375 250.115,183.293 250.430,183.293 251.200 M153.260 254.625 C 153.215 255.544,153.525 256.144,154.500 257.025 L 155.800 258.200 154.731 257.000 C 154.143 256.340,153.585 255.260,153.491 254.600 L 153.320 253.400 153.260 254.625 M164.000 259.758 C 164.000 259.845,164.705 259.983,165.566 260.065 C 166.428 260.148,167.047 260.076,166.943 259.907 C 166.753 259.600,164.000 259.460,164.000 259.758 M173.452 262.716 C 173.344 262.890,173.873 262.961,174.628 262.873 C 175.383 262.785,176.000 262.642,176.000 262.556 C 176.000 262.255,173.645 262.403,173.452 262.716 M132.800 276.200 C 133.546 276.970,134.247 277.600,134.357 277.600 C 134.467 277.600,133.946 276.970,133.200 276.200 C 132.454 275.430,131.753 274.800,131.643 274.800 C 131.533 274.800,132.054 275.430,132.800 276.200 M195.305 303.087 C 195.914 303.179,196.814 303.177,197.305 303.082 C 197.797 302.987,197.300 302.911,196.200 302.914 C 195.100 302.917,194.697 302.995,195.305 303.087 M204.300 303.082 C 204.795 303.178,205.605 303.178,206.100 303.082 C 206.595 302.987,206.190 302.909,205.200 302.909 C 204.210 302.909,203.805 302.987,204.300 303.082 M176.000 322.314 C 179.526 324.054,180.561 326.121,180.735 331.767 C 181.121 344.271,176.316 350.318,167.358 348.604 C 163.411 347.849,163.500 347.983,164.415 344.200 C 165.196 340.973,168.900 324.550,169.409 322.054 L 169.684 320.708 171.742 320.968 C 172.874 321.111,174.790 321.717,176.000 322.314 M241.982 322.391 C 248.412 325.671,247.945 336.584,241.298 338.374 C 239.395 338.886,239.444 338.129,240.856 345.174 C 241.732 349.547,241.736 349.541,238.600 349.688 L 236.216 349.800 235.135 342.800 C 234.540 338.950,233.597 332.930,233.039 329.422 C 232.480 325.914,232.102 322.964,232.198 322.868 C 232.494 322.573,237.308 321.698,238.916 321.648 C 239.750 321.621,241.130 321.956,241.982 322.391 M227.565 324.108 C 227.755 324.607,227.975 326.002,228.055 327.208 L 228.200 329.400 226.304 329.618 C 223.305 329.963,222.113 332.528,222.510 337.783 C 222.938 343.447,225.275 346.325,228.613 345.301 C 230.319 344.777,230.619 345.245,230.855 348.801 L 231.000 350.987 229.400 351.520 C 221.078 354.293,214.647 341.463,218.482 329.738 C 220.172 324.571,226.298 320.774,227.565 324.108 M195.406 324.229 C 199.098 325.982,200.090 329.935,197.204 331.398 C 196.058 331.979,195.084 332.397,195.039 332.327 C 194.994 332.257,194.648 331.705,194.270 331.100 C 192.757 328.682,190.411 330.292,189.574 334.324 C 188.083 341.501,189.435 347.141,192.419 346.194 C 194.474 345.542,194.981 341.889,193.047 341.668 L 191.895 341.537 192.112 339.137 C 192.388 336.097,192.150 336.239,196.283 336.650 L 199.800 337.000 199.673 340.600 C 199.370 349.204,196.145 353.112,190.098 352.206 C 186.180 351.618,183.988 347.663,184.014 341.227 C 184.063 329.101,189.277 321.321,195.406 324.229 M213.917 327.700 L 214.034 330.800 212.570 330.800 L 211.105 330.800 211.400 341.600 L 211.695 352.400 209.054 352.400 L 206.413 352.400 206.307 341.700 L 206.200 331.000 204.700 330.876 L 203.200 330.752 203.200 327.789 L 203.200 324.826 207.700 324.692 C 210.175 324.618,212.560 324.567,213.000 324.579 C 213.719 324.598,213.812 324.914,213.917 327.700 M237.614 327.700 C 237.635 328.445,238.685 333.218,238.868 333.402 C 239.839 334.372,241.901 331.252,241.457 329.484 C 240.985 327.603,237.567 326.016,237.614 327.700 M173.012 328.491 C 170.638 338.862,170.080 342.800,170.981 342.800 C 175.558 342.800,178.117 330.203,173.989 327.994 C 173.349 327.651,173.185 327.735,173.012 328.491 " stroke="none" fill="#ebc333" fill-rule="evenodd"></path><path id="path4" d="M149.917 58.169 C 147.952 58.749,147.744 59.032,147.470 61.500 C 147.079 65.030,149.128 64.323,150.924 60.308 C 152.079 57.724,151.999 57.555,149.917 58.169 M194.260 61.652 C 194.127 63.714,193.969 68.550,193.909 72.400 L 193.800 79.400 195.900 79.521 L 198.000 79.642 198.000 75.188 C 198.000 69.631,198.457 69.593,200.270 75.002 C 201.827 79.646,201.677 79.458,204.100 79.813 C 206.453 80.157,206.448 80.214,204.593 74.552 L 203.187 70.258 204.159 69.229 C 206.828 66.403,206.130 60.722,202.910 59.057 C 202.290 58.736,200.145 58.346,198.143 58.190 L 194.502 57.905 194.260 61.652 M178.555 59.162 C 174.187 61.826,174.246 74.120,178.648 78.714 L 180.352 80.493 183.163 80.334 C 188.177 80.051,189.891 77.060,189.495 69.288 C 189.048 60.529,183.990 55.848,178.555 59.162 M220.259 63.100 C 219.926 64.585,219.452 66.970,219.204 68.400 C 218.957 69.830,218.302 73.228,217.748 75.951 C 216.634 81.428,216.655 81.513,219.174 81.682 L 220.945 81.800 221.425 79.400 C 221.689 78.080,222.017 76.364,222.154 75.586 L 222.404 74.172 224.771 74.186 C 228.613 74.209,231.182 71.494,231.192 67.400 C 231.201 63.687,229.523 61.994,224.865 61.014 C 220.746 60.147,220.941 60.059,220.259 63.100 M162.839 61.306 C 158.132 63.725,159.346 70.040,165.252 73.861 C 169.268 76.459,169.093 79.223,164.949 78.655 L 163.110 78.403 163.392 80.301 C 163.758 82.759,164.165 83.200,166.062 83.200 C 173.964 83.200,174.987 73.547,167.487 69.757 C 163.465 67.724,163.270 64.382,167.204 64.910 C 168.969 65.147,169.003 65.080,168.543 62.300 L 168.295 60.800 166.048 60.806 C 164.811 60.809,163.367 61.034,162.839 61.306 M201.012 63.339 C 202.101 64.893,201.290 66.814,199.300 67.392 C 198.433 67.644,198.400 67.560,198.400 65.094 C 198.400 61.825,199.455 61.116,201.012 63.339 M183.054 63.383 C 185.034 64.770,185.799 73.820,184.056 75.234 C 182.100 76.820,180.949 75.627,180.164 71.200 C 179.110 65.260,180.473 61.575,183.054 63.383 M149.600 65.162 C 147.730 65.767,146.221 66.428,146.247 66.631 C 146.594 69.388,152.288 86.813,152.791 86.658 C 153.126 86.555,154.898 86.022,156.728 85.473 C 160.796 84.255,160.592 84.470,160.006 82.024 C 159.483 79.846,159.345 79.800,156.474 80.859 C 155.965 81.046,155.401 81.200,155.221 81.200 C 154.964 81.200,154.000 78.256,154.000 77.470 C 154.000 77.374,154.813 77.090,155.806 76.840 C 157.748 76.351,157.801 76.147,156.735 73.257 C 156.391 72.326,155.094 72.252,153.025 73.046 C 152.599 73.209,151.600 70.673,151.600 69.429 C 151.600 69.309,152.413 69.007,153.407 68.757 C 155.655 68.191,155.723 68.073,155.123 65.828 C 154.537 63.635,154.378 63.616,149.600 65.162 M237.466 65.873 C 237.147 66.933,236.057 70.459,235.043 73.710 C 232.409 82.156,232.677 84.501,236.487 86.345 C 241.632 88.836,244.073 87.036,246.741 78.784 C 250.674 66.619,250.558 67.712,247.995 66.955 C 245.846 66.321,246.439 65.359,243.767 73.815 C 241.034 82.462,241.064 82.400,239.666 82.400 C 237.001 82.400,237.025 81.624,239.969 72.476 C 242.607 64.276,242.660 64.950,239.323 64.224 C 238.077 63.953,238.033 63.992,237.466 65.873 M226.026 65.614 C 227.854 66.592,226.622 70.000,224.440 70.000 L 223.337 70.000 223.724 67.600 C 224.126 65.104,224.489 64.791,226.026 65.614 M132.413 71.190 C 129.250 72.575,129.306 72.406,130.806 76.032 C 131.481 77.664,133.233 81.925,134.699 85.500 C 137.544 92.440,137.482 92.372,139.917 91.282 L 141.522 90.563 140.321 87.782 C 137.584 81.439,137.608 81.382,141.388 85.300 C 144.953 88.993,145.300 89.146,147.686 88.070 L 149.172 87.400 145.758 83.662 C 143.232 80.896,142.422 79.751,142.643 79.262 C 145.509 72.919,139.427 68.120,132.413 71.190 M255.632 72.100 C 255.225 73.035,254.228 75.240,253.415 77.000 C 249.781 84.873,247.939 89.216,248.068 89.605 C 248.302 90.305,254.494 92.800,255.996 92.799 C 259.860 92.794,262.984 87.733,261.191 84.383 C 260.840 83.728,260.982 83.535,262.182 83.033 C 267.477 80.821,266.142 74.820,259.678 71.776 C 256.114 70.098,256.517 70.066,255.632 72.100 M137.652 74.400 C 138.218 74.400,139.128 76.788,138.898 77.669 C 138.593 78.834,137.174 79.453,136.602 78.671 C 134.953 76.415,135.035 73.580,136.733 74.204 C 137.026 74.312,137.439 74.400,137.652 74.400 M121.600 76.284 C 120.170 77.070,118.248 78.137,117.328 78.657 L 115.657 79.601 116.696 81.500 C 117.268 82.545,117.778 83.458,117.830 83.529 C 117.883 83.601,118.499 83.362,119.200 83.000 C 120.758 82.194,120.129 81.419,124.424 89.431 C 128.780 97.556,128.330 97.056,130.352 96.024 C 132.482 94.938,132.575 95.341,128.400 87.578 C 124.391 80.124,124.403 80.164,125.800 79.527 C 127.029 78.967,127.039 78.648,125.902 76.500 C 124.829 74.474,124.889 74.477,121.600 76.284 M260.800 77.915 C 260.800 79.296,259.717 80.400,258.362 80.400 C 256.761 80.400,256.668 79.928,257.818 77.639 C 258.961 75.363,260.800 75.533,260.800 77.915 M267.767 84.500 C 265.626 88.295,263.278 92.434,262.551 93.698 L 261.227 95.996 264.305 97.798 C 268.111 100.026,268.039 100.029,269.352 97.618 L 270.430 95.636 269.240 95.021 C 267.225 93.979,267.211 94.018,274.151 82.000 C 274.723 81.010,275.193 80.008,275.195 79.774 C 275.199 79.400,272.450 77.600,271.875 77.600 C 271.756 77.600,269.908 80.705,267.767 84.500 M256.711 84.223 C 258.363 85.380,257.424 88.439,255.438 88.372 C 253.294 88.300,253.139 87.968,254.191 85.698 C 255.257 83.398,255.408 83.310,256.711 84.223 M278.600 90.670 C 276.180 94.311,273.525 98.343,272.700 99.630 L 271.199 101.971 272.692 102.985 C 274.827 104.436,274.497 104.746,280.477 95.683 C 286.860 86.012,286.682 86.367,285.505 85.638 C 285.007 85.330,284.240 84.846,283.800 84.564 C 283.053 84.084,282.711 84.484,278.600 90.670 M290.225 93.062 C 285.918 94.384,281.444 100.649,281.415 105.400 C 281.393 108.971,283.890 112.800,286.240 112.800 C 286.952 112.800,289.472 109.091,288.892 108.897 C 285.338 107.713,285.254 103.619,288.707 99.927 C 291.401 97.047,293.914 96.653,295.912 98.797 L 296.700 99.644 298.150 97.950 C 299.911 95.892,299.933 95.552,298.388 94.251 C 296.202 92.412,293.585 92.031,290.225 93.062 M188.013 124.376 C 186.777 125.326,186.469 128.128,186.428 138.820 C 186.411 143.287,186.238 146.402,185.992 146.648 C 185.495 147.145,185.748 181.983,186.324 192.400 C 186.537 196.250,186.747 200.030,186.790 200.800 C 186.968 203.960,187.482 200.069,187.768 193.400 C 187.929 189.660,188.218 183.270,188.411 179.200 C 188.604 175.130,188.850 169.910,188.958 167.600 C 189.066 165.290,189.347 157.010,189.583 149.200 C 189.819 141.390,190.144 133.380,190.306 131.400 L 190.600 127.800 195.352 127.687 C 202.442 127.518,201.218 126.850,217.200 139.608 C 224.086 145.104,228.329 148.414,233.602 152.400 C 236.075 154.270,239.734 157.098,241.732 158.684 C 249.112 164.540,245.609 160.666,233.577 149.662 C 231.254 147.538,228.464 145.047,227.377 144.127 C 221.940 139.526,220.894 138.627,219.600 137.441 C 218.830 136.736,217.300 135.448,216.200 134.579 C 215.100 133.711,212.490 131.507,210.400 129.681 C 204.545 124.568,204.206 124.418,197.487 123.984 C 189.730 123.484,189.143 123.508,188.013 124.376 M252.749 170.728 C 253.216 171.385,254.273 172.090,255.276 172.415 C 256.224 172.723,257.450 173.204,258.000 173.485 C 258.550 173.765,259.180 173.997,259.400 173.999 C 259.620 174.001,260.610 174.701,261.600 175.555 L 263.400 177.107 263.293 179.719 C 263.153 183.119,264.053 184.000,267.666 184.000 C 269.505 184.000,270.082 184.148,270.283 184.671 C 270.588 185.466,269.796 198.808,269.088 204.800 L 268.592 209.000 266.796 210.730 C 263.862 213.555,262.477 213.995,255.086 214.447 C 251.519 214.665,247.700 215.027,246.600 215.250 C 245.500 215.473,243.340 215.906,241.800 216.212 C 240.260 216.518,237.200 216.779,235.000 216.791 C 227.210 216.836,217.345 220.514,213.837 224.683 C 213.079 225.584,212.329 225.980,211.003 226.179 C 209.716 226.372,209.000 226.737,208.500 227.458 C 206.839 229.851,205.456 231.200,204.201 231.654 C 203.462 231.921,202.771 232.469,202.666 232.870 C 202.506 233.482,202.031 233.606,199.737 233.640 C 196.546 233.686,197.642 234.294,201.038 234.360 C 202.602 234.391,203.244 234.214,203.800 233.600 C 204.198 233.160,204.980 232.800,205.538 232.800 C 206.254 232.800,207.149 232.154,208.583 230.600 C 210.271 228.772,210.842 228.400,211.960 228.400 C 213.415 228.400,215.780 227.151,216.149 226.188 C 216.355 225.652,221.955 222.797,225.000 221.676 C 227.291 220.833,230.974 220.400,235.973 220.386 C 238.870 220.378,242.102 220.125,243.600 219.788 C 245.030 219.467,248.000 219.100,250.200 218.971 C 252.400 218.843,254.560 218.584,255.000 218.397 C 255.440 218.210,257.428 217.978,259.418 217.883 C 265.019 217.615,270.104 214.513,272.040 210.184 C 272.872 208.324,273.779 194.088,273.538 186.675 C 273.367 181.422,273.198 181.231,268.700 181.213 L 265.600 181.200 265.600 179.354 C 265.600 175.516,262.544 172.818,256.857 171.636 C 255.678 171.390,254.259 170.832,253.703 170.395 C 252.258 169.258,251.813 169.414,252.749 170.728 M150.533 210.722 C 149.616 211.095,148.731 211.535,148.567 211.700 C 148.402 211.865,147.327 212.000,146.179 212.000 C 145.031 212.000,143.159 212.301,142.018 212.670 C 140.079 213.296,139.871 213.296,138.810 212.670 C 135.913 210.959,128.460 216.065,127.236 220.600 C 126.097 224.822,127.077 231.253,129.368 234.579 C 130.870 236.760,130.871 236.766,130.592 239.744 C 130.116 244.825,131.477 246.835,134.951 246.183 C 136.006 245.985,136.689 246.097,137.447 246.594 C 138.175 247.071,138.869 247.196,139.745 247.009 C 140.435 246.861,142.710 246.597,144.800 246.422 C 146.890 246.247,149.178 245.864,149.885 245.570 C 150.591 245.276,151.226 245.118,151.296 245.218 C 153.079 247.791,154.836 252.497,154.255 253.140 C 153.278 254.219,153.455 255.236,154.902 256.862 C 155.617 257.666,156.443 259.137,156.737 260.132 C 157.591 263.027,162.989 265.560,164.184 263.626 C 164.311 263.421,165.716 263.271,167.307 263.293 C 168.898 263.315,171.235 263.095,172.501 262.803 C 174.408 262.363,175.177 262.363,177.001 262.800 C 181.343 263.842,184.338 260.230,185.034 253.113 C 185.378 249.589,185.705 249.051,189.235 246.200 C 190.756 244.971,192.000 243.670,192.000 243.308 C 192.000 242.781,191.782 242.848,190.900 243.650 C 190.295 244.199,188.767 245.341,187.505 246.188 C 184.264 248.361,184.078 248.648,183.399 252.543 C 182.410 258.211,179.816 261.529,177.394 260.225 C 175.873 259.406,171.237 259.540,170.159 260.434 C 169.837 260.701,169.031 260.788,168.206 260.644 C 167.432 260.510,166.191 260.293,165.447 260.162 C 164.644 260.020,163.984 260.102,163.824 260.362 C 163.504 260.879,161.630 260.933,160.862 260.447 C 160.030 259.919,158.436 254.826,158.417 252.632 C 158.405 251.220,158.071 250.081,157.233 248.596 C 156.591 247.458,155.854 245.734,155.596 244.764 C 154.471 240.538,152.269 239.456,148.813 241.431 C 146.895 242.527,140.693 242.867,136.400 242.112 L 134.600 241.795 134.739 238.957 C 134.883 236.002,134.371 234.478,132.402 232.000 C 131.099 230.360,130.256 223.193,131.128 221.169 C 132.019 219.099,136.793 215.504,137.786 216.154 C 139.104 217.018,140.718 216.968,142.916 215.996 C 143.915 215.554,145.243 215.108,145.867 215.004 C 149.005 214.484,150.737 214.091,152.100 213.590 C 153.406 213.111,154.257 213.134,158.700 213.775 C 167.105 214.988,180.453 214.652,183.760 213.145 C 185.292 212.447,185.024 212.032,183.300 212.433 C 179.752 213.257,162.591 212.652,160.200 211.619 C 156.878 210.183,152.791 209.804,150.533 210.722 M169.655 322.077 C 169.422 322.805,168.695 325.830,168.039 328.800 C 167.383 331.770,166.202 337.076,165.416 340.592 C 163.718 348.178,163.633 347.790,167.124 348.414 C 176.166 350.030,180.591 344.902,180.597 332.800 C 180.602 324.775,178.841 322.534,171.339 321.010 C 170.178 320.774,170.044 320.859,169.655 322.077 M235.652 322.225 C 231.973 322.896,232.154 322.645,232.704 326.313 C 233.876 334.125,235.255 342.925,235.838 346.309 L 236.477 350.017 238.539 349.759 C 241.465 349.392,241.456 349.418,240.473 344.042 C 239.384 338.088,239.339 338.547,241.037 338.271 C 246.673 337.357,248.276 329.007,243.773 324.022 C 242.628 322.755,239.607 321.332,238.723 321.643 C 238.655 321.667,237.273 321.929,235.652 322.225 M222.939 324.013 C 215.624 327.678,215.931 346.244,223.378 350.609 C 227.591 353.077,231.107 351.781,230.564 347.959 L 230.200 345.400 228.287 345.537 C 225.024 345.771,223.314 343.841,222.421 338.916 C 221.424 333.420,223.369 329.200,226.897 329.200 L 228.247 329.200 227.813 326.300 L 227.379 323.400 225.989 323.290 C 225.181 323.226,223.905 323.529,222.939 324.013 M191.303 324.063 C 183.651 326.179,181.224 347.285,188.154 351.438 C 193.833 354.841,199.157 350.046,199.521 341.201 L 199.698 336.905 196.149 336.708 C 194.197 336.600,192.579 336.531,192.553 336.555 C 192.527 336.580,192.383 337.725,192.233 339.100 L 191.960 341.600 193.430 341.600 C 194.870 341.600,194.895 341.626,194.644 342.879 C 193.459 348.804,188.779 347.065,188.814 340.713 C 188.861 332.297,191.605 327.538,194.379 331.064 L 195.217 332.129 197.232 331.185 C 199.526 330.111,199.600 329.498,197.776 326.710 C 196.173 324.259,193.922 323.338,191.303 324.063 M203.595 326.900 C 203.592 328.055,203.481 329.405,203.348 329.900 C 203.126 330.727,203.241 330.800,204.753 330.800 L 206.400 330.800 206.400 341.600 L 206.400 352.400 209.055 352.400 L 211.710 352.400 211.459 348.700 C 211.321 346.665,211.181 341.850,211.148 338.000 L 211.089 331.000 212.544 330.876 L 214.000 330.752 214.000 328.409 C 214.000 324.656,214.217 324.800,208.557 324.800 L 203.600 324.800 203.595 326.900 M240.964 328.100 C 242.194 330.003,242.171 331.091,240.872 332.390 C 238.890 334.371,238.339 333.849,237.792 329.474 L 237.508 327.200 238.945 327.200 C 239.996 327.200,240.538 327.442,240.964 328.100 M175.069 328.633 C 177.092 330.655,175.856 339.997,173.300 342.007 C 172.457 342.670,170.000 343.148,170.000 342.649 C 170.000 342.566,170.551 339.821,171.224 336.549 C 171.898 333.277,172.552 329.925,172.677 329.100 C 172.949 327.315,173.620 327.184,175.069 328.633 " stroke="none" fill="#12110e" fill-rule="evenodd"></path></g></svg>